<svg version="1.1" id="Layer_1" xmlns="http://www.w3.org/2000/svg" xmlns:xlink="http://www.w3.org/1999/xlink" x="0px" y="0px"
	 width="100%" viewBox="0 0 678 272" enable-background="new 0 0 678 272" xml:space="preserve">
<path fill="#343440" opacity="1.000000" stroke="none" 
	d="
M427.000000,273.000000 
	C284.666656,273.000000 142.833328,273.000000 1.000000,273.000000 
	C1.000000,182.333328 1.000000,91.666664 1.000000,1.000000 
	C227.000000,1.000000 453.000000,1.000000 679.000000,1.000000 
	C679.000000,91.666664 679.000000,182.333328 679.000000,273.000000 
	C595.166687,273.000000 511.333344,273.000000 427.000000,273.000000 
M432.673309,88.808342 
	C420.740448,102.521996 408.807587,116.235649 396.344360,130.249634 
	C395.501495,131.125275 394.658630,132.000931 393.338989,132.380508 
	C393.179840,132.215393 393.020660,132.050262 392.843872,131.440628 
	C392.843872,131.440628 392.780792,131.000259 393.198700,130.436676 
	C400.707062,115.976952 408.717072,101.748299 415.526215,86.966469 
	C419.305023,78.763077 421.772522,69.774719 423.550385,60.884068 
	C425.161316,52.828251 420.087036,47.883751 411.918335,48.999130 
	C407.112823,49.655289 402.020020,51.221687 397.953766,53.796085 
	C367.886658,72.832008 349.445831,100.630836 339.133484,134.138382 
	C337.508057,139.419769 337.242371,145.324814 337.496155,150.889114 
	C337.615417,153.503906 340.374146,156.058746 342.161987,158.474060 
	C342.440857,158.850830 344.052185,158.560730 344.802124,158.140915 
	C345.204956,157.915436 345.441193,156.548477 345.148682,156.053482 
	C341.722107,150.254852 343.519135,144.347336 344.903503,138.584030 
	C350.108032,116.916817 361.126648,98.271912 375.308960,81.364395 
	C384.479156,70.432091 394.675659,60.673801 408.101013,55.071499 
	C410.421448,54.103203 413.150146,54.113243 415.690216,53.671391 
	C416.067139,56.538361 417.304901,59.620331 416.653076,62.230373 
	C414.969147,68.973000 413.089233,75.808098 410.140411,82.065651 
	C402.703125,97.848099 394.634186,113.332886 386.295471,129.350098 
	C384.538818,132.568558 382.782166,135.787018 380.495758,139.424759 
	C378.697449,142.628189 376.899139,145.831635 374.612335,149.509598 
	C364.006989,169.063431 353.318451,188.573105 342.886963,208.219269 
	C341.343140,211.126816 338.264069,215.494141 342.951416,217.696335 
	C347.753998,219.952667 348.719727,214.629333 350.312866,211.646713 
	C354.598114,203.623993 358.042480,195.085526 362.939453,187.471359 
	C370.751862,175.324051 379.399597,163.708710 387.830322,151.966248 
	C393.142334,144.567596 398.702667,137.347244 404.782135,129.835129 
	C415.890106,117.238319 426.998077,104.641510 438.669189,91.700058 
	C441.573303,89.099525 444.477448,86.498985 447.381561,83.898445 
	C447.703705,84.189369 448.025879,84.480286 448.348022,84.771210 
	C446.842865,88.160233 445.337708,91.549248 443.301270,95.346756 
	C432.353485,114.199730 421.235901,132.957382 410.565002,151.965775 
	C407.503235,157.419769 405.283142,163.473083 403.599792,169.508911 
	C402.965424,171.783630 404.943878,174.787048 405.731232,177.458267 
	C408.027954,176.638016 411.006042,176.463516 412.502441,174.884720 
	C418.681213,168.365692 424.654877,161.615891 430.261597,154.597580 
	C449.861298,130.063339 471.321198,107.338005 495.163727,86.884773 
	C496.432648,85.796257 497.808533,84.832481 499.134613,83.810631 
	C499.492493,84.164177 499.850372,84.517723 500.208282,84.871269 
	C499.358398,86.160263 498.522430,87.458717 497.656403,88.736748 
	C489.435974,100.867638 480.844452,112.766373 473.084656,125.184891 
	C464.539856,138.859741 456.566742,152.905899 448.779510,167.030090 
	C446.850677,170.528473 446.156769,174.904861 445.714020,178.966904 
	C445.315674,182.621307 447.327026,185.487762 451.348145,185.811478 
	C452.033417,185.866653 453.465576,183.979523 453.537415,182.920807 
	C453.738617,179.955612 452.538177,176.645721 453.465698,174.030380 
	C455.511139,168.262741 457.917969,162.443512 461.242889,157.339493 
	C478.773285,130.428925 496.654724,103.747223 514.332275,76.931992 
	C515.409302,75.298279 515.780273,73.199097 516.479797,71.316498 
	C514.161316,70.757553 511.476105,69.177567 509.600220,69.851204 
	C505.637421,71.274292 501.726257,73.415398 498.442871,76.065872 
	C470.330322,98.759583 445.472565,124.672997 423.043762,152.960510 
	C420.417023,156.273331 417.527557,159.377808 414.759888,162.578857 
	C414.264160,162.250824 413.768463,161.922775 413.272736,161.594727 
	C416.035248,156.418381 418.694702,151.183868 421.578674,146.076111 
	C432.126831,127.394402 442.749725,108.754898 453.815216,89.614967 
	C455.207520,86.238380 456.895355,82.943535 457.861786,79.449165 
	C458.314209,77.813271 457.982117,75.079300 456.891327,74.148026 
	C455.821808,73.234879 452.798492,73.230461 451.565735,74.120148 
	C445.274872,78.660164 439.286224,83.618950 432.673309,88.808342 
M495.051453,179.087738 
	C494.899200,178.927216 494.746979,178.766693 494.798218,177.937103 
	C496.826111,173.751663 498.623383,169.434448 500.925232,165.405518 
	C507.825745,153.327469 514.933594,141.367966 521.920288,129.338867 
	C522.370728,128.563370 522.956848,127.084129 522.659058,126.803665 
	C521.774902,125.970863 520.267700,124.882538 519.390930,125.152145 
	C517.631165,125.693321 515.844177,126.799278 514.565735,128.144714 
	C507.124481,135.976196 499.931000,144.044968 492.418213,151.805496 
	C490.190002,154.107208 487.200500,155.671921 484.559845,157.574371 
	C484.104279,157.080948 483.648712,156.587540 483.193146,156.094116 
	C485.863556,144.562439 492.971588,135.845276 500.894775,128.166031 
	C502.973480,129.650085 504.417480,130.681030 505.861481,131.711945 
	C506.625824,130.366302 508.203400,128.852737 507.968170,127.713509 
	C507.594086,125.901581 506.293976,123.992485 504.833588,122.800972 
	C503.952179,122.081795 501.905853,122.277580 500.600616,122.713676 
	C498.752960,123.330963 496.883118,124.289772 495.410736,125.554375 
	C487.436951,132.403030 481.561462,140.859970 478.098816,150.719284 
	C477.223816,153.210648 477.793884,157.207214 479.336304,159.314209 
	C481.604523,162.412689 485.740845,162.899551 489.324646,160.990845 
	C492.223297,159.447037 494.777649,157.256714 497.875854,155.813858 
	C498.009460,155.964615 498.143066,156.115372 498.124664,156.957382 
	C495.076324,162.873520 491.747437,168.665833 489.065216,174.743530 
	C486.767029,179.951035 483.934784,183.662552 477.743866,184.468735 
	C474.212158,184.928635 470.801575,186.735703 467.468964,188.231384 
	C456.173523,193.300842 446.918549,200.560486 442.343719,212.577316 
	C440.588257,217.188431 440.239594,221.832077 443.914642,225.682785 
	C447.812531,229.766968 453.100952,230.573044 457.720978,228.133133 
	C462.567474,225.573639 467.586212,222.193604 470.770569,217.875061 
	C477.166626,209.200897 482.507202,199.727112 487.974182,190.402069 
	C489.630402,187.577042 491.501709,185.973267 494.688385,185.216293 
	C528.902283,177.089005 563.305725,170.203842 598.546631,168.427521 
	C616.070984,167.544220 633.519348,167.942642 650.745911,171.593018 
	C654.141907,172.312653 658.116028,172.731247 658.416931,177.947220 
	C658.478577,179.014633 661.524353,179.909897 663.194641,180.884537 
	C663.791077,179.349136 665.255798,177.452530 664.799255,176.355164 
	C663.907043,174.210587 662.315491,171.707657 660.344971,170.792557 
	C655.870544,168.714584 651.097595,166.919144 646.258850,166.045456 
	C618.712097,161.071640 591.067139,162.855621 563.674438,166.803604 
	C540.810425,170.098877 518.213806,175.249222 495.051453,179.087738 
M73.662331,40.162773 
	C43.260303,58.820183 24.704659,85.575706 18.498907,120.793549 
	C10.202202,167.877594 35.068905,218.007599 77.598022,239.889786 
	C125.096062,264.328583 179.905380,254.761765 216.076920,215.718719 
	C259.238708,169.130524 254.697937,93.591972 206.260361,52.413834 
	C168.812012,20.577940 114.919174,15.422594 73.662331,40.162773 
M282.152802,30.815449 
	C282.152802,104.724670 282.152802,178.633896 282.152802,252.543106 
	C282.615967,252.541199 283.079102,252.539291 283.542267,252.537399 
	C283.542267,176.782303 283.542267,101.027222 283.542267,25.272141 
	C283.166046,25.260580 282.789825,25.249022 282.413605,25.237461 
	C282.326782,26.800434 282.239929,28.363405 282.152802,30.815449 
z"/>
<path fill="#67D1C3" opacity="1.000000" stroke="none" 
	d="
M73.975487,39.976154 
	C114.919174,15.422594 168.812012,20.577940 206.260361,52.413834 
	C254.697937,93.591972 259.238708,169.130524 216.076920,215.718719 
	C179.905380,254.761765 125.096062,264.328583 77.598022,239.889786 
	C35.068905,218.007599 10.202202,167.877594 18.498907,120.793549 
	C24.704659,85.575706 43.260303,58.820183 73.975487,39.976154 
M98.644882,77.144707 
	C82.035637,93.751846 65.497772,110.431885 48.716660,126.863510 
	C46.854130,128.687241 43.682072,129.648041 40.979954,130.025482 
	C37.195724,130.554062 33.282471,130.158890 29.126913,130.158890 
	C63.727909,164.763412 97.741325,198.780289 130.773483,231.815826 
	C164.589966,198.205978 198.657425,164.346695 233.055161,130.159164 
	C230.294464,130.159164 227.507080,129.893875 224.789291,130.215897 
	C219.564636,130.834946 215.888062,128.902451 212.171326,125.136177 
	C186.781845,99.408218 161.131195,73.938110 135.607819,48.341904 
	C134.323547,47.053970 133.437836,45.368610 132.097305,43.491222 
	C120.499229,55.160130 109.822105,65.902466 98.644882,77.144707 
z"/>
<path fill="#65CBBE" opacity="1.000000" stroke="none" 
	d="
M497.484741,155.353149 
	C494.777649,157.256714 492.223297,159.447037 489.324646,160.990845 
	C485.740845,162.899551 481.604523,162.412689 479.336304,159.314209 
	C477.793884,157.207214 477.223816,153.210648 478.098816,150.719284 
	C481.561462,140.859970 487.436951,132.403030 495.410736,125.554375 
	C496.883118,124.289772 498.752960,123.330963 500.600616,122.713676 
	C501.905853,122.277580 503.952179,122.081795 504.833588,122.800972 
	C506.293976,123.992485 507.594086,125.901581 507.968170,127.713509 
	C508.203400,128.852737 506.625824,130.366302 505.861511,131.711945 
	C504.417480,130.681030 502.973480,129.650085 500.894775,128.166031 
	C492.971588,135.845276 485.863556,144.562439 483.193146,156.094116 
	C483.648712,156.587540 484.104279,157.080948 484.559845,157.574371 
	C487.200500,155.671921 490.190002,154.107208 492.418213,151.805496 
	C499.931000,144.044968 507.124481,135.976196 514.565735,128.144714 
	C515.844177,126.799278 517.631165,125.693321 519.390930,125.152145 
	C520.267700,124.882538 521.774902,125.970863 522.659058,126.803665 
	C522.956848,127.084129 522.370728,128.563370 521.920288,129.338867 
	C514.933594,141.367966 507.825745,153.327469 500.925232,165.405518 
	C498.623383,169.434448 496.826111,173.751663 494.542480,178.458893 
	C494.690735,179.179810 495.094757,179.378922 495.498779,179.578033 
	C518.213806,175.249222 540.810425,170.098877 563.674438,166.803604 
	C591.067139,162.855621 618.712097,161.071640 646.258850,166.045456 
	C651.097595,166.919144 655.870544,168.714584 660.344971,170.792557 
	C662.315491,171.707657 663.907043,174.210587 664.799255,176.355164 
	C665.255798,177.452530 663.791077,179.349136 663.194580,180.884521 
	C661.524353,179.909897 658.478577,179.014633 658.416931,177.947220 
	C658.116028,172.731247 654.141907,172.312653 650.745911,171.593018 
	C633.519348,167.942642 616.070984,167.544220 598.546631,168.427521 
	C563.305725,170.203842 528.902283,177.089005 494.688385,185.216293 
	C491.501709,185.973267 489.630402,187.577042 487.974182,190.402069 
	C482.507202,199.727112 477.166626,209.200897 470.770569,217.875061 
	C467.586212,222.193604 462.567474,225.573639 457.720978,228.133133 
	C453.100952,230.573044 447.812531,229.766968 443.914642,225.682785 
	C440.239594,221.832077 440.588257,217.188431 442.343719,212.577316 
	C446.918549,200.560486 456.173523,193.300842 467.468964,188.231384 
	C470.801575,186.735703 474.212158,184.928635 477.743866,184.468735 
	C483.934784,183.662552 486.767029,179.951035 489.065216,174.743530 
	C491.747437,168.665833 495.076324,162.873520 498.384583,156.460175 
	C498.257904,155.759689 497.871338,155.556427 497.484741,155.353149 
M473.789581,191.183517 
	C463.010071,195.878250 453.718536,202.278656 449.043488,213.628174 
	C447.609070,217.110474 445.722412,221.836990 449.670776,223.915787 
	C451.846985,225.061554 456.871399,223.239975 459.227570,221.176025 
	C469.071228,212.552979 474.750336,200.909897 480.421661,188.895035 
	C478.450378,189.574203 476.479095,190.253372 473.789581,191.183517 
z"/>
<path fill="#65CCBF" opacity="1.000000" stroke="none" 
	d="
M453.344452,90.099503 
	C442.749725,108.754898 432.126831,127.394402 421.578674,146.076111 
	C418.694702,151.183868 416.035248,156.418381 413.272736,161.594727 
	C413.768463,161.922775 414.264160,162.250824 414.759888,162.578857 
	C417.527557,159.377808 420.417023,156.273331 423.043762,152.960510 
	C445.472565,124.672997 470.330322,98.759583 498.442871,76.065872 
	C501.726257,73.415398 505.637421,71.274292 509.600220,69.851204 
	C511.476105,69.177567 514.161316,70.757553 516.479797,71.316498 
	C515.780273,73.199097 515.409302,75.298279 514.332275,76.931992 
	C496.654724,103.747223 478.773285,130.428925 461.242889,157.339493 
	C457.917969,162.443512 455.511139,168.262741 453.465698,174.030380 
	C452.538177,176.645721 453.738617,179.955612 453.537415,182.920807 
	C453.465576,183.979523 452.033417,185.866653 451.348145,185.811478 
	C447.327026,185.487762 445.315674,182.621307 445.714020,178.966904 
	C446.156769,174.904861 446.850677,170.528473 448.779510,167.030090 
	C456.566742,152.905899 464.539856,138.859741 473.084656,125.184891 
	C480.844452,112.766373 489.435974,100.867638 497.656403,88.736748 
	C498.522430,87.458717 499.358398,86.160263 500.208282,84.871269 
	C499.850372,84.517723 499.492493,84.164177 499.134613,83.810631 
	C497.808533,84.832481 496.432648,85.796257 495.163727,86.884773 
	C471.321198,107.338005 449.861298,130.063339 430.261597,154.597580 
	C424.654877,161.615891 418.681213,168.365692 412.502441,174.884720 
	C411.006042,176.463516 408.027954,176.638016 405.731232,177.458282 
	C404.943878,174.787048 402.965424,171.783630 403.599792,169.508911 
	C405.283142,163.473083 407.503235,157.419769 410.565002,151.965775 
	C421.235901,132.957382 432.353485,114.199730 443.917480,95.057297 
	C447.470581,93.211723 450.407532,91.655609 453.344452,90.099503 
M413.620483,163.643875 
	C413.611694,163.286026 413.602905,162.928177 413.594116,162.570328 
	C413.406860,162.951065 413.219574,163.331787 413.620483,163.643875 
z"/>
<path fill="#65CBBE" opacity="1.000000" stroke="none" 
	d="
M386.818390,128.936966 
	C394.634186,113.332886 402.703125,97.848099 410.140411,82.065651 
	C413.089233,75.808098 414.969147,68.973000 416.653076,62.230373 
	C417.304901,59.620331 416.067139,56.538361 415.690247,53.671387 
	C413.150146,54.113243 410.421448,54.103203 408.101013,55.071499 
	C394.675659,60.673801 384.479156,70.432091 375.308960,81.364395 
	C361.126648,98.271912 350.108032,116.916817 344.903503,138.584030 
	C343.519135,144.347336 341.722107,150.254852 345.148682,156.053482 
	C345.441193,156.548477 345.204956,157.915436 344.802124,158.140915 
	C344.052185,158.560730 342.440857,158.850830 342.161987,158.474060 
	C340.374146,156.058746 337.615417,153.503906 337.496155,150.889114 
	C337.242371,145.324814 337.508057,139.419769 339.133484,134.138382 
	C349.445831,100.630836 367.886658,72.832008 397.953766,53.796085 
	C402.020020,51.221687 407.112823,49.655289 411.918335,48.999130 
	C420.087036,47.883751 425.161316,52.828251 423.550385,60.884068 
	C421.772522,69.774719 419.305023,78.763077 415.526215,86.966469 
	C408.717072,101.748299 400.707062,115.976952 392.659058,130.614624 
	C390.352417,130.174042 388.585388,129.555511 386.818390,128.936966 
z"/>
<path fill="#66CEC0" opacity="1.000000" stroke="none" 
	d="
M386.556946,129.143524 
	C388.585388,129.555511 390.352417,130.174042 392.450104,130.896423 
	C392.780792,131.000259 392.843872,131.440628 392.580902,131.888504 
	C392.278320,132.914978 392.238708,133.493591 392.199097,134.072189 
	C392.738007,133.673660 393.276886,133.275116 393.815765,132.876587 
	C394.658630,132.000931 395.501495,131.125275 397.064270,130.107681 
	C399.906647,129.992798 402.029114,130.019852 404.151611,130.046906 
	C398.702667,137.347244 393.142334,144.567596 387.830322,151.966248 
	C379.399597,163.708710 370.751862,175.324051 362.939453,187.471359 
	C358.042480,195.085526 354.598114,203.623993 350.312866,211.646713 
	C348.719727,214.629333 347.753998,219.952667 342.951416,217.696335 
	C338.264069,215.494141 341.343140,211.126816 342.886963,208.219269 
	C353.318451,188.573105 364.006989,169.063431 375.270630,149.266998 
	C377.227417,148.937729 378.814880,149.294861 379.766357,148.675293 
	C381.994324,147.224487 383.917480,145.305527 385.964050,143.576080 
	C384.317902,142.052551 382.671722,140.529007 381.025513,139.005463 
	C382.782166,135.787018 384.538818,132.568558 386.556946,129.143524 
M391.590881,135.734497 
	C391.580719,135.357819 391.570557,134.981155 391.560364,134.604477 
	C391.362854,135.000275 391.165344,135.396057 391.590881,135.734497 
z"/>
<path fill="#5DB4AA" opacity="1.000000" stroke="none" 
	d="
M282.152954,30.370914 
	C282.239929,28.363405 282.326782,26.800434 282.413605,25.237461 
	C282.789825,25.249022 283.166046,25.260580 283.542267,25.272141 
	C283.542267,101.027222 283.542267,176.782303 283.542267,252.537399 
	C283.079102,252.539291 282.615967,252.541199 282.152802,252.543106 
	C282.152802,178.633896 282.152802,104.724670 282.152954,30.370914 
z"/>
<path fill="#62C7BA" opacity="1.000000" stroke="none" 
	d="
M404.466858,129.941010 
	C402.029114,130.019852 399.906647,129.992798 397.329437,129.957520 
	C408.807587,116.235649 420.740448,102.521996 433.250397,88.844978 
	C435.253693,89.935974 436.679871,90.990326 438.106049,92.044693 
	C426.998077,104.641510 415.890106,117.238319 404.466858,129.941010 
z"/>
<path fill="#65CBBE" opacity="1.000000" stroke="none" 
	d="
M438.387634,91.872375 
	C436.679871,90.990326 435.253693,89.935974 433.509644,88.656418 
	C439.286224,83.618950 445.274872,78.660164 451.565735,74.120148 
	C452.798492,73.230461 455.821808,73.234879 456.891327,74.148026 
	C457.982117,75.079300 458.314209,77.813271 457.861786,79.449165 
	C456.895355,82.943535 455.207520,86.238380 453.579834,89.857231 
	C450.407532,91.655609 447.470581,93.211723 444.183105,94.853058 
	C445.337708,91.549248 446.842865,88.160233 448.348022,84.771210 
	C448.025879,84.480286 447.703705,84.189369 447.381561,83.898445 
	C444.477448,86.498985 441.573303,89.099525 438.387634,91.872375 
z"/>
<path fill="#62C6B9" opacity="1.000000" stroke="none" 
	d="
M380.760651,139.215118 
	C382.671722,140.529007 384.317902,142.052551 385.964050,143.576080 
	C383.917480,145.305527 381.994324,147.224487 379.766357,148.675293 
	C378.814880,149.294861 377.227417,148.937729 375.514893,149.029739 
	C376.899139,145.831635 378.697449,142.628189 380.760651,139.215118 
z"/>
<path fill="#353742" opacity="1.000000" stroke="none" 
	d="
M98.894936,76.894753 
	C109.822105,65.902466 120.499229,55.160130 132.097305,43.491222 
	C133.437836,45.368610 134.323547,47.053970 135.607819,48.341904 
	C161.131195,73.938110 186.781845,99.408218 212.171326,125.136177 
	C215.888062,128.902451 219.564636,130.834946 224.789291,130.215897 
	C227.507080,129.893875 230.294464,130.159164 233.055161,130.159164 
	C198.657425,164.346695 164.589966,198.205978 130.773483,231.815826 
	C97.741325,198.780289 63.727909,164.763412 29.126913,130.158890 
	C33.282471,130.158890 37.195724,130.554062 40.979954,130.025482 
	C43.682072,129.648041 46.854130,128.687241 48.716660,126.863510 
	C65.497772,110.431885 82.035637,93.751846 98.894936,76.894753 
M187.995178,142.495239 
	C191.780624,138.702255 195.566071,134.909271 200.290939,130.174988 
	C195.704346,130.174988 192.701416,129.904465 189.766464,130.235809 
	C184.861450,130.789536 181.444290,128.904343 178.031235,125.400711 
	C163.965378,110.961555 149.604355,96.809853 135.341232,82.563103 
	C134.098679,81.321976 132.778732,80.158348 130.952087,78.451729 
	C114.890648,94.722321 99.049072,110.680893 83.344910,126.773567 
	C80.945747,129.232071 78.530724,130.494644 75.056946,130.235489 
	C71.416962,129.963913 67.740982,130.174759 63.648453,130.174759 
	C86.831650,153.358231 109.309792,175.836624 131.995575,198.522675 
	C150.294601,180.214462 168.894882,161.604843 187.995178,142.495239 
z"/>
<path fill="#353843" opacity="1.000000" stroke="none" 
	d="
M474.148682,191.058029 
	C476.479095,190.253372 478.450378,189.574203 480.421661,188.895035 
	C474.750336,200.909897 469.071228,212.552979 459.227570,221.176025 
	C456.871399,223.239975 451.846985,225.061554 449.670776,223.915787 
	C445.722412,221.836990 447.609070,217.110474 449.043488,213.628174 
	C453.718536,202.278656 463.010071,195.878250 474.148682,191.058029 
z"/>
<path fill="#343440" opacity="1.000000" stroke="none" 
	d="
M497.680298,155.583511 
	C497.871338,155.556427 498.257904,155.759689 498.460571,156.114532 
	C498.143066,156.115372 498.009460,155.964615 497.680298,155.583511 
z"/>
<path fill="#343440" opacity="1.000000" stroke="none" 
	d="
M495.275116,179.332886 
	C495.094757,179.378922 494.690735,179.179810 494.440735,178.793442 
	C494.746979,178.766693 494.899200,178.927216 495.275116,179.332886 
z"/>
<path fill="#343440" opacity="1.000000" stroke="none" 
	d="
M413.326416,163.678192 
	C413.219574,163.331787 413.406860,162.951065 413.594116,162.570328 
	C413.602905,162.928177 413.611694,163.286026 413.326416,163.678192 
z"/>
<path fill="#343440" opacity="1.000000" stroke="none" 
	d="
M393.577393,132.628540 
	C393.276886,133.275116 392.738007,133.673660 392.199097,134.072189 
	C392.238708,133.493591 392.278320,132.914978 392.589722,132.110764 
	C393.020660,132.050262 393.179840,132.215393 393.577393,132.628540 
z"/>
<path fill="#343440" opacity="1.000000" stroke="none" 
	d="
M391.279358,135.763168 
	C391.165344,135.396057 391.362854,135.000275 391.560364,134.604477 
	C391.570557,134.981155 391.580719,135.357819 391.279358,135.763168 
z"/>
<path fill="#67D1C3" opacity="1.000000" stroke="none" 
	d="
M187.745163,142.745224 
	C168.894882,161.604843 150.294601,180.214462 131.995575,198.522675 
	C109.309792,175.836624 86.831650,153.358231 63.648453,130.174759 
	C67.740982,130.174759 71.416962,129.963913 75.056946,130.235489 
	C78.530724,130.494644 80.945747,129.232071 83.344910,126.773567 
	C99.049072,110.680893 114.890648,94.722321 130.952087,78.451729 
	C132.778732,80.158348 134.098679,81.321976 135.341232,82.563103 
	C149.604355,96.809853 163.965378,110.961555 178.031235,125.400711 
	C181.444290,128.904343 184.861450,130.789536 189.766464,130.235809 
	C192.701416,129.904465 195.704346,130.174988 200.290939,130.174988 
	C195.566071,134.909271 191.780624,138.702255 187.745163,142.745224 
M137.834305,158.353073 
	C146.885864,149.245468 155.937408,140.137863 165.860886,130.152939 
	C161.216553,130.152939 158.044312,129.869461 154.943710,130.219894 
	C150.377808,130.735916 147.054932,129.187057 144.120972,125.704208 
	C140.313232,121.184097 136.116623,116.991554 131.603012,112.137039 
	C129.044586,115.006310 127.118095,116.872246 125.534668,118.994186 
	C119.007584,127.741104 110.766678,132.349808 99.559357,130.211914 
	C99.179382,130.139420 98.722404,130.470551 98.801216,130.443787 
	C109.841347,141.501648 120.937637,152.615753 132.721222,164.418243 
	C133.937653,162.950745 135.634262,160.903976 137.834305,158.353073 
z"/>
<path fill="#353843" opacity="1.000000" stroke="none" 
	d="
M137.582581,158.605133 
	C135.634262,160.903976 133.937653,162.950745 132.721222,164.418243 
	C120.937637,152.615753 109.841347,141.501648 98.801216,130.443787 
	C98.722404,130.470551 99.179382,130.139420 99.559357,130.211914 
	C110.766678,132.349808 119.007584,127.741104 125.534668,118.994186 
	C127.118095,116.872246 129.044586,115.006310 131.603012,112.137039 
	C136.116623,116.991554 140.313232,121.184097 144.120972,125.704208 
	C147.054932,129.187057 150.377808,130.735916 154.943710,130.219894 
	C158.044312,129.869461 161.216553,130.152939 165.860886,130.152939 
	C155.937408,140.137863 146.885864,149.245468 137.582581,158.605133 
z"/>
</svg>